<?xml version="1.0" encoding="utf-8"?>
<!-- Generator: Adobe Illustrator 25.0.1, SVG Export Plug-In . SVG Version: 6.00 Build 0)  -->
<svg version="1.1" id="a" xmlns="http://www.w3.org/2000/svg" xmlns:xlink="http://www.w3.org/1999/xlink" x="0px" y="0px"
	 viewBox="0 0 644 131" style="enable-background:new 0 0 644 131;" xml:space="preserve">
<style type="text/css">
	.st0{fill:#24AA4A;}
</style>
<g>
	<path class="st0" d="M608.4,19.8c-0.7,0-1.3,0.4-1.7,1c-1.6,2.7-3.3,5.5-5,8.5c-2,3.3-4,6.7-6,10.1s-4,6.8-6.1,10.2
		c-1.4,2.3-2.8,4.6-4.1,6.7c-0.8,1.3-2.6,1.3-3.4,0c-3.3-5.4-6.6-11-10-16.8c-3.8-6.4-7.4-12.6-11-18.6c-0.4-0.6-1-1-1.7-1h-16
		c-1.5,0-2.5,1.7-1.7,3c5,8.6,10.3,17.1,15.8,25.7c6,9.4,11.8,18.8,17.2,28.2c0.2,0.3,0.3,0.7,0.3,1v32.5c0,1.1,0.9,2,2,2h13.7
		c1.1,0,2-0.9,2-2V77.7c0-0.4,0.1-0.7,0.3-1c2.3-3.9,5-8.3,8-13.1c3.1-5,6.3-10.1,9.5-15.3s6.3-10.3,9.4-15.2
		c2.3-3.7,4.4-7.1,6.3-10.2c0.8-1.3-0.1-3-1.7-3L608.4,19.8L608.4,19.8z"/>
	<path class="st0" d="M299.8,29.3c-3-3-6.4-5.3-10.4-7s-8.3-2.6-12.8-2.6h-39.2c-1.1,0-2,0.9-2,2v11.7c0,1.1,0.9,2,2,2h37.3
		c2.8,0,5.2,0.5,7.3,1.5c2.1,1,3.9,2.3,5.3,3.9c1.4,1.6,2.5,3.4,3.3,5.5s1.1,4.2,1.1,6.3s-0.3,4.1-0.9,6.1c-0.6,1.9-1.5,3.7-2.7,5.2
		c-1.2,1.5-2.8,2.7-4.7,3.6s-4.2,1.3-6.8,1.3h-39.2c-1.1,0-2,0.9-2,2v39.5c0,1.1,0.9,2,2,2h13.7c1.1,0,2-0.9,2-2V86.7
		c0-1.1,0.9-2,2-2h18.6c5.9,0,11.1-0.8,15.6-2.5c4.5-1.6,8.2-3.9,11.2-6.8s5.2-6.3,6.7-10.2c1.5-3.9,2.3-8.1,2.3-12.6
		s-0.9-8.8-2.6-12.8S302.8,32.2,299.8,29.3"/>
	<path class="st0" d="M134,19.8h64c1.1,0,2,0.9,2,2v11.5c0,1.1-0.9,2-2,2h-64c-1.1,0-2-0.9-2-2V21.8C132,20.7,132.9,19.8,134,19.8z"
		/>
	<path class="st0" d="M134,58.7h64c1.1,0,2,0.9,2,2v11.6c0,1.1-0.9,2-2,2h-64c-1.1,0-2-0.9-2-2V60.7C132,59.6,132.9,58.7,134,58.7z"
		/>
	<path class="st0" d="M134,96.6h64c1.1,0,2,0.9,2,2v11.5c0,1.1-0.9,2-2,2h-64c-1.1,0-2-0.9-2-2V98.6C132,97.5,132.9,96.6,134,96.6z"
		/>
	<path class="st0" d="M25.5,67h13.4c1.1,0,2,0.9,2,2v41c0,1.1-0.9,2-2,2H25.5c-1.1,0-2-0.9-2-2V69C23.5,67.9,24.4,67,25.5,67z"/>
	<path class="st0" d="M357.1,19.7h-13.7c-1.1,0-2,0.9-2,2v88.5c0,1.1,0.9,2,2,2H406c1.1,0,2-0.9,2-2V98.5c0-1.1-0.9-2-2-2h-44.9
		c-1.1,0-2-0.9-2-2V21.7C359.1,20.6,358.2,19.7,357.1,19.7L357.1,19.7z"/>
	<path class="st0" d="M460.8,111l22.8-49.1c0.7-1.5,2.9-1.5,3.6,0L510,111c0.3,0.7,1,1.2,1.8,1.2H527c1.5,0,2.4-1.5,1.8-2.9
		l-43-90.6h-1l-43.1,90.6c-0.6,1.3,0.3,2.9,1.8,2.9H459C459.8,112.2,460.5,111.7,460.8,111L460.8,111z"/>
	<path class="st0" d="M92.3,69.8c3.5-5.2,5.3-11.4,5.3-18.4c0-4.7-0.8-8.9-2.4-12.9c-1.6-3.9-3.8-7.3-6.6-10.2
		c-2.8-2.8-6.2-5-10.1-6.6s-8.3-2.3-13-2.3H25.3c-1.1,0-2,0.9-2,2v11.7c0,1.1,0.9,2,2,2h40.2c3.1,0,5.6,0.6,7.5,1.8s3.3,2.6,4.3,4.3
		s1.7,3.5,2,5.3c0.3,1.9,0.5,3.5,0.5,4.8c0,2.6-0.4,4.9-1.3,6.8c-0.9,1.9-2,3.6-3.4,4.9c-1.4,1.3-2.9,2.3-4.6,2.9s-3.4,0.9-5,0.9H53
		c-1.6,0-2.5,1.8-1.7,3.1c7.3,11.3,15.9,24.7,18,27.6c3.4,4.6,6.8,9.2,10.3,13.8c0.4,0.5,1,0.8,1.6,0.8h16.3c1.6,0,2.6-1.9,1.6-3.2
		c-6.4-8.7-12.8-17.4-19.3-26c-0.8-1-0.4-2.4,0.7-3C85.3,77.8,89.2,74.4,92.3,69.8"/>
</g>
</svg>
